<?xml version="1.0" encoding="UTF-8"?>
<svg width="220px" height="220px" viewBox="0 0 220 220" version="1.1" xmlns="http://www.w3.org/2000/svg" xmlns:xlink="http://www.w3.org/1999/xlink">
    <!-- Generator: Sketch 48 (47235) - http://www.bohemiancoding.com/sketch -->
    <title>Invest</title>
    <desc>Created with Sketch.</desc>
    <defs>
        <polygon id="path-1" points="27 42.8456376 99.5 0 172 42.8456376 172 126.281879 100.632812 168 27 126.281879"></polygon>
        <filter x="-34.5%" y="-23.8%" width="169.0%" height="159.5%" filterUnits="objectBoundingBox" id="filter-2">
            <feOffset dx="0" dy="10" in="SourceAlpha" result="shadowOffsetOuter1"></feOffset>
            <feGaussianBlur stdDeviation="15" in="shadowOffsetOuter1" result="shadowBlurOuter1"></feGaussianBlur>
            <feColorMatrix values="0 0 0 0 0.274509804   0 0 0 0 0.243137255   0 0 0 0 0.764705882  0 0 0 0.441547781 0" type="matrix" in="shadowBlurOuter1"></feColorMatrix>
        </filter>
        <filter x="-93.0%" y="-75.0%" width="284.2%" height="289.3%" filterUnits="objectBoundingBox" id="filter-3">
            <feOffset dx="0" dy="10" in="SourceAlpha" result="shadowOffsetOuter1"></feOffset>
            <feGaussianBlur stdDeviation="15" in="shadowOffsetOuter1" result="shadowBlurOuter1"></feGaussianBlur>
            <feColorMatrix values="0 0 0 0 0.219607843   0 0 0 0 0.101960784   0 0 0 0 0.517647059  0 0 0 1 0" type="matrix" in="shadowBlurOuter1" result="shadowMatrixOuter1"></feColorMatrix>
            <feMerge>
                <feMergeNode in="shadowMatrixOuter1"></feMergeNode>
                <feMergeNode in="SourceGraphic"></feMergeNode>
            </feMerge>
        </filter>
        <path d="M1.80628663,11.33931 L25.8062866,0.930080265 C27.3263292,0.270810577 29.0930109,0.968604887 29.7522806,2.48864748 C29.9156862,2.86540291 30,3.27169549 30,3.68236085 L30,40.9084094 C30,42.1037649 29.2903646,43.1850528 28.1937134,43.66069 L4.19371337,54.0699197 C2.67367077,54.7291894 0.906989107,54.0313951 0.247719419,52.5113525 C0.0843138437,52.1345971 2.04783957e-14,51.7283045 2.04281037e-14,51.3176392 L2.35367281e-14,14.0915906 C2.39211838e-14,12.8962351 0.709635428,11.8149472 1.80628663,11.33931 Z" id="path-4"></path>
        <filter x="-16.7%" y="-7.5%" width="133.3%" height="118.6%" filterUnits="objectBoundingBox" id="filter-5">
            <feOffset dx="0" dy="1" in="SourceAlpha" result="shadowOffsetOuter1"></feOffset>
            <feGaussianBlur stdDeviation="1.5" in="shadowOffsetOuter1" result="shadowBlurOuter1"></feGaussianBlur>
            <feColorMatrix values="0 0 0 0 0.211764706   0 0 0 0 0.0980392157   0 0 0 0 0.498039216  0 0 0 0.396654212 0" type="matrix" in="shadowBlurOuter1"></feColorMatrix>
        </filter>
        <path d="M2.11619911,11.1165851 L35.1161991,0.943290197 C36.6995231,0.455180443 38.3787519,1.34302701 38.8668617,2.926351 C38.9551226,3.2126507 39,3.51055632 39,3.81015189 L39,42.0165532 C39,43.3329712 38.1417969,44.4955978 36.8838009,44.8834149 L3.88380089,55.0567098 C2.3004769,55.5448196 0.621248058,54.656973 0.133138304,53.073649 C0.044877358,52.7873493 1.73561691e-14,52.4894437 1.73194792e-14,52.1898481 L1.42108547e-14,13.9834468 C1.404964e-14,12.6670288 0.858203051,11.5044022 2.11619911,11.1165851 Z" id="path-6"></path>
        <filter x="-12.8%" y="-7.4%" width="125.6%" height="118.4%" filterUnits="objectBoundingBox" id="filter-7">
            <feOffset dx="0" dy="1" in="SourceAlpha" result="shadowOffsetOuter1"></feOffset>
            <feGaussianBlur stdDeviation="1.5" in="shadowOffsetOuter1" result="shadowBlurOuter1"></feGaussianBlur>
            <feColorMatrix values="0 0 0 0 0.211764706   0 0 0 0 0.0980392157   0 0 0 0 0.498039216  0 0 0 0.396654212 0" type="matrix" in="shadowBlurOuter1"></feColorMatrix>
        </filter>
        <path d="M2.49758509,11.2393059 L45.4975851,3.9348641 C47.1310394,3.65738801 48.6801546,4.75662556 48.9576307,6.39007988 C48.9858269,6.5560659 49,6.72413094 49,6.89249479 L49,44.8030635 C49,46.2660473 47.9447368,47.5156859 46.5024149,47.7606941 L3.50241491,55.0651359 C1.86896059,55.342612 0.319845408,54.2433744 0.0423693164,52.6099201 C0.0141731479,52.4439341 1.29037279e-14,52.2758691 1.24344979e-14,52.1075052 L1.59872116e-14,14.1969365 C1.51583524e-14,12.7339527 1.05526317,11.4843141 2.49758509,11.2393059 Z" id="path-8"></path>
        <filter x="-10.2%" y="-7.8%" width="120.4%" height="119.5%" filterUnits="objectBoundingBox" id="filter-9">
            <feOffset dx="0" dy="1" in="SourceAlpha" result="shadowOffsetOuter1"></feOffset>
            <feGaussianBlur stdDeviation="1.5" in="shadowOffsetOuter1" result="shadowBlurOuter1"></feGaussianBlur>
            <feColorMatrix values="0 0 0 0 0.211764706   0 0 0 0 0.0980392157   0 0 0 0 0.498039216  0 0 0 0.396654212 0" type="matrix" in="shadowBlurOuter1"></feColorMatrix>
        </filter>
        <rect id="path-10" x="0" y="12" width="56" height="44" rx="3"></rect>
        <filter x="-8.9%" y="-9.1%" width="117.9%" height="122.7%" filterUnits="objectBoundingBox" id="filter-11">
            <feOffset dx="0" dy="1" in="SourceAlpha" result="shadowOffsetOuter1"></feOffset>
            <feGaussianBlur stdDeviation="1.5" in="shadowOffsetOuter1" result="shadowBlurOuter1"></feGaussianBlur>
            <feColorMatrix values="0 0 0 0 0.211764706   0 0 0 0 0.0980392157   0 0 0 0 0.498039216  0 0 0 0.396654212 0" type="matrix" in="shadowBlurOuter1"></feColorMatrix>
        </filter>
        <path d="M35,25 L57,25 L57,42 L35,42 C33.3431458,42 32,40.6568542 32,39 L32,28 C32,26.3431458 33.3431458,25 35,25 Z" id="path-12"></path>
        <filter x="-12.0%" y="-17.6%" width="124.0%" height="135.3%" filterUnits="objectBoundingBox" id="filter-13">
            <feOffset dx="0" dy="0" in="SourceAlpha" result="shadowOffsetOuter1"></feOffset>
            <feGaussianBlur stdDeviation="1" in="shadowOffsetOuter1" result="shadowBlurOuter1"></feGaussianBlur>
            <feComposite in="shadowBlurOuter1" in2="SourceAlpha" operator="out" result="shadowBlurOuter1"></feComposite>
            <feColorMatrix values="0 0 0 0 0.466666667   0 0 0 0 0.37254902   0 0 0 0 0.701960784  0 0 0 1 0" type="matrix" in="shadowBlurOuter1"></feColorMatrix>
        </filter>
    </defs>
    <g id="Page-1" stroke="none" stroke-width="1" fill="none" fill-rule="evenodd">
        <g id="Invest">
            <g id="invest-icon" transform="translate(13.000000, 20.000000)">
                <g id="icon-bg">
                    <g id="Path-30">
                        <use fill="black" fill-opacity="1" filter="url(#filter-2)" xlink:href="#path-1"></use>
                        <use fill="#FFFFFF" fill-rule="evenodd" xlink:href="#path-1"></use>
                    </g>
                    <polygon id="Path-30-Copy" fill="#B6A4E2" style="mix-blend-mode: multiply;" opacity="0.458956069" points="79 43.2885906 125.5 16 172 43.2885906 172 96.4295302 126.226562 123 79 96.4295302"></polygon>
                    <polygon id="Path-30" fill="#B6A4E2" points="54 58.2885906 100.5 31 147 58.2885906 147 111.42953 101.226563 138 54 111.42953"></polygon>
                    <polygon id="Path-30-Copy" fill="#B6A4E2" style="mix-blend-mode: multiply;" opacity="0.273097826" points="8 32.2885906 54.5 5 101 32.2885906 101 85.4295302 55.2265625 112 8 85.4295302"></polygon>
                    <polygon id="Path-30-Copy" stroke="#9E89D6" points="0 111.751678 21.5 99 43 111.751678 43 136.583893 21.8359375 149 0 136.583893"></polygon>
                    <polygon id="Path-30-Copy" stroke="#D1BFFF" points="8 33.1812081 24 24 40 33.1812081 40 51.0604027 24.25 60 8 51.0604027"></polygon>
                    <polygon id="Path-30-Copy" stroke="#D1BFFF" points="140 25.1812081 156 16 172 25.1812081 172 43.0604027 156.25 52 140 43.0604027"></polygon>
                    <polygon id="Path-30-Copy" stroke="#D1BFFF" points="69 13.1812081 85 4 101 13.1812081 101 31.0604027 85.25 40 69 31.0604027"></polygon>
                    <polygon id="Path-30-Copy-2" stroke="#9E89D6" opacity="0.681782156" points="141 124.04698 166.5 109 192 124.04698 192 153.348993 166.898438 168 141 153.348993"></polygon>
                </g>
                <g id="wallet" filter="url(#filter-3)" transform="translate(73.000000, 53.000000)">
                    <g id="Rectangle-14" opacity="0.593070652">
                        <use fill="black" fill-opacity="1" filter="url(#filter-5)" xlink:href="#path-4"></use>
                        <use fill="#FFFFFF" fill-rule="evenodd" xlink:href="#path-4"></use>
                    </g>
                    <g id="Rectangle-14" opacity="0.593070652">
                        <use fill="black" fill-opacity="1" filter="url(#filter-7)" xlink:href="#path-6"></use>
                        <use fill="#FFFFFF" fill-rule="evenodd" xlink:href="#path-6"></use>
                    </g>
                    <g id="Rectangle-14" opacity="0.593070652">
                        <use fill="black" fill-opacity="1" filter="url(#filter-9)" xlink:href="#path-8"></use>
                        <use fill="#FFFFFF" fill-rule="evenodd" xlink:href="#path-8"></use>
                    </g>
                    <g id="Rectangle-14">
                        <use fill="black" fill-opacity="1" filter="url(#filter-11)" xlink:href="#path-10"></use>
                        <use fill="#FFFFFF" fill-rule="evenodd" xlink:href="#path-10"></use>
                    </g>
                    <g id="Rectangle-15">
                        <use fill="black" fill-opacity="1" filter="url(#filter-13)" xlink:href="#path-12"></use>
                        <use fill="#FFFFFF" fill-rule="evenodd" xlink:href="#path-12"></use>
                        <path stroke="#A794DB" stroke-width="1" d="M56.5,41.5 L56.5,25.5 L35,25.5 C33.6192881,25.5 32.5,26.6192881 32.5,28 L32.5,39 C32.5,40.3807119 33.6192881,41.5 35,41.5 L56.5,41.5 Z"></path>
                    </g>
                    <circle id="Oval-2" fill="#5B3EA5" cx="40.5" cy="33.5" r="2.5"></circle>
                </g>
            </g>
        </g>
    </g>
</svg>