<?xml version="1.0" encoding="utf-8"?>
<!-- Generator: Adobe Illustrator 19.1.0, SVG Export Plug-In . SVG Version: 6.00 Build 0)  -->
<svg version="1.1" id="图层_1" xmlns="http://www.w3.org/2000/svg" xmlns:xlink="http://www.w3.org/1999/xlink" x="0px" y="0px"
	 viewBox="117 -15 42 49" style="enable-background:new 117 -15 42 49;" xml:space="preserve">
<style type="text/css">
	.st0{fill:#50D1FF;}
	.st1{fill:#0AB2ED;}
	.st2{fill:#9EE6FF;}
	.st3{fill:#0071BD;}
</style>
<title>Logo_white</title>
<desc>Created with Sketch.</desc>
<polygon id="Rectangle-5" class="st0" points="118,-2.3 138,8.7 138,31.7 118,20.7 "/>
<polygon id="Rectangle-5_1_" class="st1" points="123,5.7 138,13.7 138,17.7 123,9.7 "/>
<polygon id="Rectangle-5-Copy" class="st1" points="123,14.7 138,22.7 138,26.7 123,18.7 "/>
<polygon id="Rectangle-5_2_" class="st2" points="118,-2.3 138,-14.3 158,-2.3 138,8.7 "/>
<polygon id="Rectangle-5_3_" class="st0" points="127,-2.8 138.5,-9.3 150,-2.8 138.5,3.7 "/>
<polygon id="Rectangle-5_4_" class="st1" points="138.5,-9.3 150,-2.8 138.5,3.7 "/>
<polygon id="Combined-Shape" class="st1" points="158,-2.3 138,8.7 138,31.7 158,20.7 "/>
<polygon id="Rectangle-5_5_" class="st3" points="158,3.2 138,13.7 138,17.7 158,7.2 "/>
<polygon id="Rectangle-5-Copy_1_" class="st3" points="158,12.2 138,22.7 138,26.7 158,16.2 "/>
<polygon id="Rectangle-5_6_" class="st3" points="123,5.7 126.2,7.4 123,9.7 "/>
<polygon id="Rectangle-5-Copy-2" class="st3" points="123,14.7 126.2,16.4 123,18.7 "/>
</svg>
