<?xml version="1.0" encoding="utf-8"?>
<!-- Generator: Adobe Illustrator 19.1.0, SVG Export Plug-In . SVG Version: 6.00 Build 0)  -->
<svg version="1.1" id="bg" xmlns="http://www.w3.org/2000/svg" xmlns:xlink="http://www.w3.org/1999/xlink" x="0px" y="0px"
	 viewBox="704 -434 1440 900" style="enable-background:new 704 -434 1440 900;" xml:space="preserve">
<style type="text/css">
	.st0{fill:#463EC3;}
</style>
<path id="Rectangle-Copy" class="st0" d="M704,315c69.2,23.2,129.2,31.2,180,24c78-11,99-52,180-64.4c84.9-13,88-57.6,180-69.6
	c85.2-11.1,81-63,180-77c73.4-10.4,70.4-61.5,180-54c73,5,100.5-55.4,180-49.5c116,8.5,121.1-53.1,180-68.5c69-18,112,7,180-46
	c0,149.3,0,335,0,557H704V315z"/>
</svg>
